<svg width="40" height="40" viewBox="0 0 40 40" fill="none" xmlns="http://www.w3.org/2000/svg">
<g clip-path="url(#clip0_401_1528)">
<path d="M24.4298 11.6674L24.7812 11.6849C26.8842 11.8264 29.8312 13.1621 31.4106 15.4558C31.5262 15.6237 31.6051 15.8137 31.6423 16.0137C31.6794 16.2136 31.674 16.419 31.6264 16.6167C31.5787 16.8145 31.4899 17.0001 31.3657 17.1618C31.2414 17.3235 31.0844 17.4576 30.9047 17.5556C30.8312 17.5964 30.3577 17.786 30.1739 17.872C29.7994 18.0453 29.4437 18.2559 29.1121 18.5005C28.2092 19.1727 27.718 19.9718 27.7268 20.9707C27.7415 22.2612 28.2253 23.0909 29.0606 23.6625C29.3665 23.8711 29.7018 24.0315 30.04 24.1437C30.2253 24.2064 30.6665 24.3129 30.693 24.3216C30.9782 24.4232 31.2248 24.6097 31.3991 24.8556C31.5734 25.1015 31.6668 25.3947 31.6665 25.6953C31.6665 29.5172 27.1959 35 23.893 35C22.7313 35 22.0224 34.8673 20.9769 34.5407L20.8327 34.4955C20.1519 34.2826 19.8004 34.2155 19.1666 34.2155C18.4019 34.2155 17.8975 34.303 16.9342 34.5611L16.6445 34.6384C15.7989 34.8615 15.2269 34.9679 14.4386 35C10.396 35 6.66663 27.5734 6.66663 21.7713C6.66663 16.128 9.29308 11.6805 14.4401 11.6805C14.8769 11.6805 15.3195 11.7462 15.7769 11.8672C16.3695 12.0232 16.9151 12.2463 17.6828 12.6079C18.8401 13.1533 19.0769 13.2496 19.1666 13.2496H19.1901C19.2342 13.2452 19.3783 13.181 20.743 12.5832C22.3033 11.9022 23.4842 11.5843 24.7812 11.6849L24.4283 11.6674H24.4298Z" fill="white"/>
<path d="M23.3334 3.33333C23.7754 3.33333 24.1993 3.50892 24.5119 3.82148C24.8244 4.13404 25 4.55797 25 4.99999C25 6.32608 24.4733 7.59785 23.5356 8.53553C22.5979 9.47321 21.3261 9.99999 20 9.99999C19.558 9.99999 19.1341 9.8244 18.8215 9.51184C18.509 9.19928 18.3334 8.77536 18.3334 8.33333C18.3334 7.00725 18.8602 5.73548 19.7978 4.79779C20.7355 3.86011 22.0073 3.33333 23.3334 3.33333Z" fill="white"/>
</g>
<defs>
<clipPath id="clip0_401_1528">
<rect width="40" height="40" fill="white"/>
</clipPath>
</defs>
</svg>
