<svg width="16" height="20" viewBox="0 0 16 20" fill="none" xmlns="http://www.w3.org/2000/svg">
<path d="M13.967 6.85935C13.9091 6.74201 13.7845 6.66669 13.6472 6.66669H9.46485L13.5925 0.511681C13.6613 0.409024 13.6655 0.279024 13.6034 0.172696C13.5413 0.0660158 13.4227 0 13.2942 0H7.64719C7.51343 0 7.3913 0.0713283 7.33132 0.184336L2.03722 10.1844C1.9825 10.2874 1.98849 10.41 2.05273 10.5083C2.11733 10.6067 2.23062 10.6667 2.35308 10.6667H5.98236L2.02766 19.5373C1.96024 19.689 2.02026 19.865 2.16882 19.951C2.22598 19.984 2.28951 20 2.35271 20C2.454 20 2.55389 19.959 2.62308 19.8817L13.9172 7.21498C14.0057 7.11568 14.0248 6.97701 13.967 6.85935Z" fill="url(#paint0_linear_120_6203)"/>
<defs>
<linearGradient id="paint0_linear_120_6203" x1="8" y1="0" x2="8" y2="20" gradientUnits="userSpaceOnUse">
<stop stop-color="#00FFFF"/>
<stop offset="1" stop-color="#6EFFE2"/>
</linearGradient>
</defs>
</svg>
