<svg width="24" height="24" viewBox="0 0 24 24" fill="none" xmlns="http://www.w3.org/2000/svg">
<g clip-path="url(#clip0_401_1979)">
<path d="M19.125 7C19.125 6.70163 19.0069 6.41508 18.7959 6.2041C18.6113 6.01954 18.3688 5.90646 18.1113 5.88086L18 5.875H6C5.70163 5.875 5.41508 5.99312 5.2041 6.2041C4.99312 6.41508 4.875 6.70163 4.875 7V19L4.88086 19.1113C4.90646 19.3688 5.01954 19.6113 5.2041 19.7959C5.41508 20.0069 5.70163 20.125 6 20.125H18C18.2984 20.125 18.5849 20.0069 18.7959 19.7959C19.0069 19.5849 19.125 19.2984 19.125 19V7ZM20.875 19C20.875 19.7625 20.5724 20.494 20.0332 21.0332C19.494 21.5724 18.7625 21.875 18 21.875H6C5.2375 21.875 4.50596 21.5724 3.9668 21.0332C3.42763 20.494 3.125 19.7625 3.125 19V7C3.125 6.2375 3.42763 5.50596 3.9668 4.9668C4.50596 4.42763 5.2375 4.125 6 4.125H18C18.7625 4.125 19.494 4.42763 20.0332 4.9668C20.5724 5.50596 20.875 6.2375 20.875 7V19Z" fill="white"/>
<path d="M15.125 7V3C15.125 2.51675 15.5168 2.125 16 2.125C16.4832 2.125 16.875 2.51675 16.875 3V7C16.875 7.48325 16.4832 7.875 16 7.875C15.5168 7.875 15.125 7.48325 15.125 7Z" fill="white"/>
<path d="M7.125 7V3C7.125 2.51675 7.51675 2.125 8 2.125C8.48325 2.125 8.875 2.51675 8.875 3V7C8.875 7.48325 8.48325 7.875 8 7.875C7.51675 7.875 7.125 7.48325 7.125 7Z" fill="white"/>
<path d="M20 10.125C20.4832 10.125 20.875 10.5168 20.875 11C20.875 11.4832 20.4832 11.875 20 11.875H4C3.51675 11.875 3.125 11.4832 3.125 11C3.125 10.5168 3.51675 10.125 4 10.125H20Z" fill="white"/>
</g>
<defs>
<clipPath id="clip0_401_1979">
<rect width="24" height="24" fill="white"/>
</clipPath>
</defs>
</svg>
