<svg width="24" height="24" viewBox="0 0 24 24" fill="none" xmlns="http://www.w3.org/2000/svg">
<g clip-path="url(#clip0_238_6589)">
<path d="M15.6797 3C16.6944 3.00017 17.5484 3.76062 17.666 4.76855L18.0391 7.96777C18.0562 8.11477 18.057 8.25951 18.043 8.40039H19C20.1046 8.40039 21 9.29582 21 10.4004V17.2002C20.9998 18.3046 20.1044 19.2002 19 19.2002H17.4004V20.0996C17.4004 20.5967 16.9971 21 16.5 21C16.0029 21 15.5996 20.5967 15.5996 20.0996V19.2002H8.40039V20.0996C8.40039 20.5967 7.99706 21 7.5 21C7.00294 21 6.59961 20.5967 6.59961 20.0996V19.2002H5C3.89556 19.2002 3.00021 18.3046 3 17.2002V10.4004C3 9.29582 3.89543 8.40039 5 8.40039H5.95703C5.94303 8.25952 5.94282 8.11476 5.95996 7.96777L6.33301 4.76855C6.45058 3.76078 7.30482 3.00045 8.31934 3H15.6797ZM5.7998 10.2002C5.24771 10.2003 4.79996 10.6481 4.7998 11.2002V16.4004C4.80002 16.9524 5.24774 17.4003 5.7998 17.4004H18.2002C18.7523 17.4003 19.2 16.9524 19.2002 16.4004V11.2002C19.2 10.6481 18.7523 10.2003 18.2002 10.2002H5.7998ZM7.5 12.9004C7.99699 12.9004 8.40029 13.3028 8.40039 13.7998C8.40039 14.2969 7.99706 14.7002 7.5 14.7002C7.00294 14.7002 6.59961 14.2969 6.59961 13.7998C6.59971 13.3028 7.00301 12.9004 7.5 12.9004ZM16.5 12.9004C16.997 12.9004 17.4003 13.3028 17.4004 13.7998C17.4004 14.2969 16.9971 14.7002 16.5 14.7002C16.0029 14.7002 15.5996 14.2969 15.5996 13.7998C15.5997 13.3028 16.003 12.9004 16.5 12.9004ZM8.97461 4.7998C8.4738 4.80025 8.0496 5.17146 7.9834 5.66797L7.65039 8.16797C7.63987 8.24697 7.63994 8.32479 7.64746 8.40039H16.3525C16.3601 8.32477 16.3592 8.24698 16.3486 8.16797L16.0156 5.66797C15.9494 5.17131 15.5254 4.79998 15.0244 4.7998H8.97461Z" fill="#6EFFE2"/>
</g>
<defs>
<clipPath id="clip0_238_6589">
<rect width="24" height="24" fill="white"/>
</clipPath>
</defs>
</svg>
