<svg width="24" height="24" viewBox="0 0 24 24" fill="none" xmlns="http://www.w3.org/2000/svg">
<g clip-path="url(#clip0_401_930)">
<path d="M17.3809 6.38085C17.7226 6.03915 18.2775 6.03915 18.6192 6.38085C18.9609 6.72256 18.9609 7.27743 18.6192 7.61914L17.6192 8.61914C17.2775 8.96084 16.7226 8.96084 16.3809 8.61914C16.0392 8.27743 16.0392 7.72256 16.3809 7.38085L17.3809 6.38085Z" fill="white"/>
<path d="M16.125 16V13C16.125 12.7016 16.0069 12.4151 15.7959 12.2041C15.5849 11.9931 15.2984 11.875 15 11.875H14C13.5168 11.875 13.125 11.4832 13.125 11C13.125 10.5167 13.5168 10.125 14 10.125H15C15.7625 10.125 16.494 10.4276 17.0332 10.9668C17.5724 11.506 17.875 12.2375 17.875 13V16C17.875 16.1658 17.9404 16.3252 18.0576 16.4424C18.1748 16.5596 18.3342 16.625 18.5 16.625C18.6658 16.625 18.8252 16.5596 18.9424 16.4424C19.0596 16.3252 19.125 16.1658 19.125 16V9.36328L16.3809 6.61914C16.0392 6.27743 16.0392 5.72256 16.3809 5.38085C16.7226 5.03915 17.2774 5.03915 17.6191 5.38085L20.6191 8.38085C20.7832 8.54495 20.875 8.76793 20.875 8.99999V16C20.875 16.6299 20.6251 17.2343 20.1797 17.6797C19.7343 18.1251 19.1299 18.375 18.5 18.375C17.8701 18.375 17.2657 18.1251 16.8203 17.6797C16.3749 17.2343 16.125 16.6299 16.125 16Z" fill="white"/>
<path d="M13.125 20V6C13.125 5.70163 13.0069 5.41508 12.7959 5.2041C12.6113 5.01954 12.3688 4.90646 12.1113 4.88086L12 4.875H6C5.70163 4.875 5.41508 4.99312 5.2041 5.2041C4.99312 5.41508 4.875 5.70163 4.875 6V20C4.875 20.4832 4.48325 20.875 4 20.875C3.51675 20.875 3.125 20.4832 3.125 20V6C3.125 5.2375 3.42763 4.50596 3.9668 3.9668C4.50596 3.42763 5.2375 3.125 6 3.125H12C12.7625 3.125 13.494 3.42763 14.0332 3.9668C14.5724 4.50596 14.875 5.2375 14.875 6V20C14.875 20.4832 14.4832 20.875 14 20.875C13.5168 20.875 13.125 20.4832 13.125 20Z" fill="white"/>
<path d="M8.24999 11.0498C8.49866 10.6355 9.03585 10.5014 9.45019 10.75C9.86446 10.9987 9.99859 11.5359 9.74999 11.9502L9.04491 13.125H10.5L10.6172 13.1328C10.886 13.1691 11.1259 13.3294 11.2617 13.5693C11.4168 13.8436 11.4121 14.18 11.25 14.4502L9.74999 16.9502C9.50132 17.3645 8.96413 17.4986 8.5498 17.25C8.13553 17.0013 8.00139 16.4641 8.24999 16.0498L8.95507 14.875H7.49999C7.18475 14.875 6.89359 14.705 6.73827 14.4307C6.58322 14.1564 6.58789 13.82 6.74999 13.5498L8.24999 11.0498Z" fill="white"/>
<path d="M3 20H15" stroke="white" stroke-width="1.75" stroke-linecap="round" stroke-linejoin="round"/>
<path d="M14 7.125C14.4832 7.125 14.875 7.51675 14.875 8C14.875 8.48325 14.4832 8.875 14 8.875H4C3.51675 8.875 3.125 8.48325 3.125 8C3.125 7.51675 3.51675 7.125 4 7.125H14Z" fill="white"/>
</g>
<defs>
<clipPath id="clip0_401_930">
<rect width="24" height="24" fill="white"/>
</clipPath>
</defs>
</svg>
