<svg width="40" height="40" viewBox="0 0 40 40" fill="none" xmlns="http://www.w3.org/2000/svg">
<g clip-path="url(#clip0_401_1215)">
<path d="M33.5417 13.3333C33.5417 12.394 33.1691 11.4926 32.5049 10.8285C31.8407 10.1643 30.9393 9.79167 30 9.79167H10C9.06071 9.79167 8.15933 10.1643 7.49514 10.8285C6.83095 11.4926 6.45835 12.394 6.45835 13.3333V26.6667L6.47626 27.0166C6.55675 27.8274 6.91396 28.5904 7.49514 29.1715C8.15933 29.8357 9.06071 30.2083 10 30.2083H30L30.35 30.1904C31.1607 30.1099 31.9237 29.7527 32.5049 29.1715C33.0861 28.5904 33.4433 27.8274 33.5238 27.0166L33.5417 26.6667V13.3333ZM36.4584 26.6667C36.4584 28.3795 35.7783 30.0226 34.5671 31.2337C33.3559 32.4449 31.7129 33.125 30 33.125H10C8.28716 33.125 6.64414 32.4449 5.43296 31.2337C4.22179 30.0226 3.54169 28.3795 3.54169 26.6667V13.3333C3.54169 11.6205 4.22179 9.97745 5.43296 8.76628C6.64414 7.5551 8.28716 6.875 10 6.875H30C31.7129 6.875 33.3559 7.5551 34.5671 8.76628C35.7783 9.97745 36.4584 11.6205 36.4584 13.3333V26.6667Z" fill="white"/>
<path d="M35 15.2083C35.8054 15.2083 36.4584 15.8612 36.4584 16.6667C36.4584 17.4721 35.8054 18.125 35 18.125H5.00002C4.19461 18.125 3.54169 17.4721 3.54169 16.6667C3.54169 15.8612 4.19461 15.2083 5.00002 15.2083H35Z" fill="white"/>
<path d="M11.6829 23.5417C12.4883 23.5417 13.1413 24.1946 13.1413 25C13.1413 25.8054 12.4883 26.4583 11.6829 26.4583H11.6666C10.8612 26.4583 10.2083 25.8054 10.2083 25C10.2083 24.1946 10.8612 23.5417 11.6666 23.5417H11.6829Z" fill="white"/>
<path d="M21.6667 23.5417C22.4721 23.5417 23.125 24.1946 23.125 25C23.125 25.8054 22.4721 26.4583 21.6667 26.4583H18.3333C17.5279 26.4583 16.875 25.8054 16.875 25C16.875 24.1946 17.5279 23.5417 18.3333 23.5417H21.6667Z" fill="white"/>
</g>
<defs>
<clipPath id="clip0_401_1215">
<rect width="40" height="40" fill="white"/>
</clipPath>
</defs>
</svg>
