<svg width="20" height="20" viewBox="0 0 20 20" fill="none" xmlns="http://www.w3.org/2000/svg">
<path d="M4.23828 4.23901C4.55648 3.92084 5.07243 3.92084 5.39062 4.23901L10 8.84741L14.6094 4.23901C14.9275 3.92086 15.4435 3.92093 15.7617 4.23901C16.0799 4.5572 16.0799 5.07318 15.7617 5.39136L11.1523 9.99976L15.7617 14.6082C16.0799 14.9263 16.0798 15.4423 15.7617 15.7605C15.4435 16.0787 14.9276 16.0786 14.6094 15.7605L10 11.1521L5.3916 15.7615C5.0734 16.0795 4.55739 16.0796 4.23926 15.7615C3.92119 15.4433 3.92125 14.9273 4.23926 14.6091L8.84766 9.99976L4.23828 5.39038C3.92058 5.07232 3.92061 4.5571 4.23828 4.23901Z" fill="white"/>
</svg>
