<svg width="24" height="24" viewBox="0 0 24 24" fill="none" xmlns="http://www.w3.org/2000/svg">
<g clip-path="url(#clip0_70_503)">
<path d="M3.125 18V9C3.125 8.2375 3.42763 7.50596 3.9668 6.9668C4.50596 6.42763 5.2375 6.125 6 6.125H7C7.48325 6.125 7.875 6.51675 7.875 7C7.875 7.48325 7.48325 7.875 7 7.875H6C5.70163 7.875 5.41508 7.99312 5.2041 8.2041C4.99312 8.41508 4.875 8.70163 4.875 9V18L4.88086 18.1113C4.90646 18.3688 5.01954 18.6113 5.2041 18.7959C5.41508 19.0069 5.70163 19.125 6 19.125H15C15.2984 19.125 15.5849 19.0069 15.7959 18.7959C16.0069 18.5849 16.125 18.2984 16.125 18V17C16.125 16.5168 16.5168 16.125 17 16.125C17.4832 16.125 17.875 16.5168 17.875 17V18C17.875 18.7625 17.5724 19.494 17.0332 20.0332C16.494 20.5724 15.7625 20.875 15 20.875H6C5.2375 20.875 4.50596 20.5724 3.9668 20.0332C3.42763 19.494 3.125 18.7625 3.125 18Z" fill="white"/>
<path d="M20.125 5.10048C20.125 4.77556 19.9964 4.46304 19.7666 4.23329C19.5369 4.00367 19.2251 3.875 18.9004 3.87489C18.5757 3.87489 18.2639 4.00382 18.0342 4.23329L18.0322 4.23524L9.875 12.3622V14.1249H11.6367L19.7656 5.96767L19.7666 5.96669C19.9962 5.73705 20.1249 5.42523 20.125 5.10048ZM21.875 5.10048C21.8749 5.88891 21.5612 6.6443 21.0039 7.20204L12.6201 15.6181C12.4559 15.7828 12.2326 15.8749 12 15.8749H9C8.51675 15.8749 8.125 15.4831 8.125 14.9999V11.9999C8.12503 11.7673 8.21807 11.5439 8.38281 11.3798L16.7959 2.99696C17.3538 2.43902 18.1113 2.12489 18.9004 2.12489C19.6893 2.125 20.4461 2.43817 21.0039 2.99599C21.5618 3.55393 21.875 4.31143 21.875 5.10048Z" fill="white"/>
<path d="M15.3808 4.38085C15.7225 4.03915 16.2774 4.03915 16.6191 4.38085L19.6191 7.38085C19.9608 7.72256 19.9608 8.27743 19.6191 8.61914C19.2774 8.96084 18.7225 8.96084 18.3808 8.61914L15.3808 5.61914C15.0391 5.27743 15.0391 4.72256 15.3808 4.38085Z" fill="white"/>
</g>
<defs>
<clipPath id="clip0_70_503">
<rect width="24" height="24" fill="white"/>
</clipPath>
</defs>
</svg>
