<svg width="24" height="24" viewBox="0 0 24 24" fill="none" xmlns="http://www.w3.org/2000/svg">
<g clip-path="url(#clip0_70_477)">
<path d="M19.155 10.8147C19.1549 10.2618 18.9 9.73969 18.4636 9.40062H18.4626L13.1296 5.25316V5.25218C12.8545 5.03823 12.5237 4.90979 12.1785 4.88109L12.03 4.87523C11.6318 4.87523 11.2448 5.00773 10.9304 5.25218V5.25316L5.59644 9.40062C5.38113 9.56806 5.20645 9.78253 5.08667 10.0276C4.9669 10.2726 4.9049 10.5419 4.90503 10.8147V18.0149C4.90503 18.3132 5.02319 18.5998 5.23413 18.8108C5.44511 19.0218 5.73166 19.1399 6.03003 19.1399H18.03C18.3284 19.1399 18.615 19.0218 18.8259 18.8108C19.0369 18.5998 19.155 18.3132 19.155 18.0149V10.8147ZM20.905 18.0149C20.905 18.7773 20.6024 19.5089 20.0632 20.0481C19.5241 20.5872 18.7925 20.8899 18.03 20.8899H6.03003C5.26753 20.8899 4.53599 20.5872 3.99683 20.0481C3.4577 19.5089 3.15503 18.7773 3.15503 18.0149V10.8147C3.15489 10.2756 3.27764 9.74339 3.5144 9.25902C3.75129 8.77442 4.09642 8.35089 4.52222 8.01976L9.8562 3.87132L10.0955 3.70042C10.6691 3.32624 11.3409 3.12523 12.03 3.12523C12.8175 3.12523 13.5823 3.38788 14.2039 3.87132L19.5359 8.01878C20.3993 8.68959 20.9049 9.7218 20.905 10.8147V18.0149Z" fill="#60F7D1"/>
<path d="M7.25103 14.5479C7.50078 14.1342 8.0385 14.0012 8.4522 14.251C9.38883 14.8164 10.6704 15.125 11.9991 15.125C13.3276 15.125 14.6101 14.8166 15.5479 14.251C15.9616 14.0014 16.4994 14.1343 16.7491 14.5479C16.9986 14.9616 16.8658 15.4994 16.4522 15.749C15.1801 16.5163 13.5659 16.875 11.9991 16.875C10.4324 16.875 8.81916 16.5165 7.54791 15.749C7.13421 15.4993 7.0013 14.9616 7.25103 14.5479Z" fill="#60F7D1"/>
</g>
<defs>
<clipPath id="clip0_70_477">
<rect width="24" height="24" fill="white"/>
</clipPath>
</defs>
</svg>
