<svg width="24" height="24" viewBox="0 0 24 24" fill="none" xmlns="http://www.w3.org/2000/svg">
<g clip-path="url(#clip0_70_462)">
<path d="M19.125 15.5918L15.3662 14.0889L14.25 15.9502C14.0158 16.3404 13.5216 16.4863 13.1133 16.2852C10.769 15.129 8.87099 13.231 7.71484 10.8867C7.51374 10.4784 7.65956 9.98425 8.0498 9.75L9.91016 8.63281L8.40723 4.875H5C4.70163 4.875 4.41508 4.99312 4.2041 5.2041C3.99681 5.41139 3.87906 5.69166 3.875 5.98438C4.10737 9.6579 5.67202 13.1212 8.27539 15.7246C10.8785 18.3277 14.3415 19.8914 18.0146 20.124C18.3077 20.1202 18.5884 20.0034 18.7959 19.7959C19.0069 19.5849 19.125 19.2984 19.125 19V15.5918ZM20.875 19C20.875 19.7625 20.5724 20.494 20.0332 21.0332C19.494 21.5724 18.7625 21.875 18 21.875C17.9824 21.875 17.9648 21.8741 17.9473 21.873C13.8332 21.623 9.95253 19.8764 7.03809 16.9619C4.12364 14.0475 2.37697 10.1668 2.12695 6.05273C2.12589 6.03517 2.125 6.0176 2.125 6C2.125 5.2375 2.42763 4.50596 2.9668 3.9668C3.50596 3.42763 4.2375 3.125 5 3.125H9L9.13184 3.13477C9.43503 3.18088 9.69615 3.3841 9.8125 3.6748L11.8125 8.6748C11.972 9.0735 11.8184 9.52901 11.4502 9.75L9.66895 10.8184C10.5297 12.2624 11.7367 13.4691 13.1807 14.3301L14.25 12.5498L14.3428 12.4219C14.5834 12.1479 14.9763 12.0479 15.3252 12.1875L20.3252 14.1875C20.6573 14.3204 20.875 14.6423 20.875 15V19Z" fill="#60F7D1"/>
</g>
<defs>
<clipPath id="clip0_70_462">
<rect width="24" height="24" fill="white"/>
</clipPath>
</defs>
</svg>
