<svg width="24" height="24" viewBox="0 0 24 24" fill="none" xmlns="http://www.w3.org/2000/svg">
<g clip-path="url(#clip0_401_1764)">
<path d="M12.8553 6.125C14.099 6.12509 15.3102 6.52032 16.3153 7.25293C17.3203 7.98563 18.0675 9.01802 18.4481 10.2021L20.1541 15.5078C20.3891 16.239 20.4479 17.0161 20.326 17.7744C20.204 18.5325 19.9043 19.2516 19.452 19.8721C18.9996 20.4925 18.4069 20.9976 17.7225 21.3457C17.0382 21.6937 16.2812 21.8749 15.5135 21.875H8.48714C7.71915 21.875 6.96173 21.6938 6.27718 21.3457C5.59271 20.9976 5.00006 20.4926 4.54769 19.8721C4.09535 19.2515 3.79564 18.5326 3.67366 17.7744C3.55172 17.0161 3.61053 16.239 3.84554 15.5078L5.55159 10.2021C5.93219 9.01803 6.67936 7.98564 7.6844 7.25293C8.68951 6.52022 9.90151 6.12504 11.1453 6.125H12.8553ZM11.1453 7.875C10.2721 7.87503 9.42134 8.1526 8.71565 8.66699C8.01002 9.18139 7.48487 9.90599 7.21761 10.7373V10.7383L5.51155 16.0439C5.36099 16.5125 5.32403 17.0101 5.40218 17.4961C5.48034 17.9821 5.67176 18.443 5.96175 18.8408C6.25164 19.2385 6.63152 19.562 7.07015 19.7852C7.50897 20.0083 7.99483 20.125 8.48714 20.125H15.5125C16.0048 20.125 16.4907 20.0083 16.9295 19.7852C17.3682 19.562 17.748 19.2385 18.0379 18.8408C18.3279 18.443 18.5203 17.9822 18.5985 17.4961C18.6766 17.0101 18.6387 16.5125 18.4881 16.0439L16.7821 10.7383V10.7373C16.5148 9.90613 15.9905 9.18136 15.285 8.66699C14.5794 8.1526 13.7285 7.87509 12.8553 7.875H11.1453Z" fill="#60F7D1"/>
<path d="M15 2.125C15.2695 2.125 15.5236 2.24954 15.6895 2.46191C15.8551 2.67421 15.9139 2.95064 15.8486 3.21191C15.503 4.59432 15.0512 5.72413 14.4502 6.52539C13.8308 7.3512 13.0104 7.875 12 7.875C10.9897 7.875 10.1692 7.3512 9.54981 6.52539C8.94886 5.72413 8.49698 4.59432 8.15137 3.21191C8.08613 2.95064 8.14487 2.67421 8.31055 2.46191C8.47637 2.24954 8.73056 2.125 9.00001 2.125H15ZM10.169 3.875C10.4123 4.58385 10.6762 5.10928 10.9502 5.47461C11.3308 5.98204 11.6771 6.125 12 6.125C12.3229 6.125 12.6692 5.98204 13.0498 5.47461C13.3238 5.10928 13.5877 4.58385 13.8311 3.875H10.169Z" fill="#60F7D1"/>
<path d="M13.125 15.5C13.125 15.3342 13.0596 15.1748 12.9424 15.0576C12.8252 14.9404 12.6658 14.875 12.5 14.875H11.5C10.8701 14.875 10.2657 14.6251 9.82031 14.1797C9.37491 13.7343 9.125 13.1299 9.125 12.5C9.125 11.8701 9.37491 11.2657 9.82031 10.8203C10.2657 10.3749 10.8701 10.125 11.5 10.125H14C14.4832 10.125 14.875 10.5168 14.875 11C14.875 11.4832 14.4832 11.875 14 11.875H11.5C11.3342 11.875 11.1748 11.9404 11.0576 12.0576C10.9404 12.1748 10.875 12.3342 10.875 12.5C10.875 12.6658 10.9404 12.8252 11.0576 12.9424C11.1748 13.0596 11.3342 13.125 11.5 13.125H12.5C13.1299 13.125 13.7343 13.3749 14.1797 13.8203C14.6251 14.2657 14.875 14.8701 14.875 15.5C14.875 16.1299 14.6251 16.7343 14.1797 17.1797C13.7343 17.6251 13.1299 17.875 12.5 17.875H10C9.51675 17.875 9.125 17.4832 9.125 17C9.125 16.5168 9.51675 16.125 10 16.125H12.5C12.6658 16.125 12.8252 16.0596 12.9424 15.9424C13.0596 15.8252 13.125 15.6658 13.125 15.5Z" fill="#60F7D1"/>
<path d="M11.125 11V10C11.125 9.51675 11.5168 9.125 12 9.125C12.4832 9.125 12.875 9.51675 12.875 10V11C12.875 11.4832 12.4832 11.875 12 11.875C11.5168 11.875 11.125 11.4832 11.125 11Z" fill="#60F7D1"/>
<path d="M11.125 18V17C11.125 16.5168 11.5168 16.125 12 16.125C12.4832 16.125 12.875 16.5168 12.875 17V18C12.875 18.4832 12.4832 18.875 12 18.875C11.5168 18.875 11.125 18.4832 11.125 18Z" fill="#60F7D1"/>
</g>
<defs>
<clipPath id="clip0_401_1764">
<rect width="24" height="24" fill="white"/>
</clipPath>
</defs>
</svg>
