<svg width="24" height="24" viewBox="0 0 24 24" fill="none" xmlns="http://www.w3.org/2000/svg">
<g clip-path="url(#clip0_316_6679)">
<rect x="4" y="5" width="16" height="2" rx="1" fill="#A7B5C9"/>
<path d="M14 4C14 3.46957 13.7893 2.96086 13.4142 2.58579C13.0391 2.21071 12.5304 2 12 2C11.4696 2 10.9609 2.21071 10.5858 2.58579C10.2107 2.96086 10 3.46957 10 4L12 4H14Z" fill="#A7B5C9"/>
<path d="M17 8C18.1046 8 19 8.89543 19 10V18C19 19.1046 18.1046 20 17 20H7C5.89543 20 5 19.1046 5 18V10C5 8.89543 5.89543 8 7 8H17ZM9 11C8.44772 11 8 11.4477 8 12V16C8 16.5523 8.44772 17 9 17C9.55228 17 10 16.5523 10 16V12C10 11.4477 9.55228 11 9 11ZM15 11C14.4477 11 14 11.4477 14 12V16C14 16.5523 14.4477 17 15 17C15.5523 17 16 16.5523 16 16V12C16 11.4477 15.5523 11 15 11Z" fill="#A7B5C9"/>
</g>
<defs>
<clipPath id="clip0_316_6679">
<rect width="24" height="24" fill="white"/>
</clipPath>
</defs>
</svg>
